<svg id="Группа_1" data-name="Группа 1" xmlns="http://www.w3.org/2000/svg" xmlns:xlink="http://www.w3.org/1999/xlink" width="349" height="632" viewBox="0 0 349 632">
  <defs>
    <style>
      .cls-1 {
        fill: #a8ca3f;
        filter: url(#filter);
      }

      .cls-1, .cls-2 {
        fill-rule: evenodd;
      }

      .cls-2 {
        fill: #fff;
      }
    </style>
    <filter id="filter" x="1556" y="82" width="349" height="632" filterUnits="userSpaceOnUse">
      <feOffset result="offset" in="SourceAlpha"/>
      <feGaussianBlur result="blur" stdDeviation="6.325"/>
      <feFlood result="flood" flood-color="#1d5b98" flood-opacity="0.1"/>
      <feComposite result="composite" operator="in" in2="blur"/>
      <feBlend result="blend" in="SourceGraphic"/>
    </filter>
  </defs>
  <path id="Rounded_Rectangle_1_copy" data-name="Rounded Rectangle 1 copy" class="cls-1" d="M1610,121h240a15,15,0,0,1,15,15V659a15,15,0,0,1-15,15H1610a15,15,0,0,1-15-15V136A15,15,0,0,1,1610,121Zm59-19h122a8,8,0,0,1,8,8v32a8,8,0,0,1-8,8H1669a8,8,0,0,1-8-8V110A8,8,0,0,1,1669,102Z" transform="translate(-1556 -82)"/>
  <path id="Rounded_Rectangle_1_copy_2" data-name="Rounded Rectangle 1 copy 2" class="cls-2" d="M1612,128h236a10,10,0,0,1,10,10V657a10,10,0,0,1-10,10H1612a10,10,0,0,1-10-10V138A10,10,0,0,1,1612,128Zm53-15h130a10,10,0,0,1,10,10v23a10,10,0,0,1-10,10H1665a10,10,0,0,1-10-10V123A10,10,0,0,1,1665,113Z" transform="translate(-1556 -82)"/>
</svg>
